<?xml version="1.0" encoding="utf-8"?>
<!-- Generator: Adobe Illustrator 16.0.0, SVG Export Plug-In . SVG Version: 6.00 Build 0)  -->
<!DOCTYPE svg PUBLIC "-//W3C//DTD SVG 1.1//EN" "http://www.w3.org/Graphics/SVG/1.1/DTD/svg11.dtd">
<svg version="1.1" id="WBUR_x5F_RGB_x5F_K" xmlns="http://www.w3.org/2000/svg" xmlns:xlink="http://www.w3.org/1999/xlink" x="0px"
	 y="0px" width="597.742px" height="179.768px" viewBox="0 0 597.742 179.768" enable-background="new 0 0 597.742 179.768"
	 xml:space="preserve">
<g>
	<g>
		<path fill="#231F20" d="M268.247,112.686h-8.573l-22.922-62.992h-10.324V43.22h43.569v6.474h-9.624l11.724,33.946l16.097-40.42
			h8.749l17.149,39.545l7.875-24.847c0.174-0.7,1.049-3.15,1.049-5.075c0-2.449-0.7-3.149-4.374-3.149h-5.251V43.22h29.224v6.474
			h-5.426c-3.674,0-5.424,3.675-6.823,7.699l-18.724,55.293h-8.749l-18.023-41.819L268.247,112.686z"/>
		<path fill="#231F20" d="M394.586,113.735c-8.047,0-15.223-3.673-19.773-11.197v9.798h-34.295v-6.474h11.023V6.474h-11.375V0
			h34.646v52.669c4.55-7.524,11.726-11.199,20.123-11.199c19.074,0,29.922,15.223,29.922,35.87
			C424.857,97.813,412.783,113.735,394.586,113.735z M389.688,50.219c-6.65,0-10.324,3.85-13.299,11.023
			c-1.05,4.9-1.75,9.099-1.75,16.097c0,7.175,0.7,11.726,1.75,16.624c2.975,7.174,6.649,11.023,13.299,11.023
			c10.848,0,11.021-11.548,11.021-27.473C400.709,61.418,400.535,50.219,389.688,50.219z"/>
		<path fill="#231F20" d="M521.447,112.335h-34.469v-10.324c-3.15,6.126-11.023,11.898-22.572,11.898
			c-15.574,0-22.572-9.797-22.572-19.946c0-2.1,0-6.475,0-9.1v-35.17h-11.023V43.22h34.645v49.87c0,8.048,2.451,11.723,8.4,11.723
			c5.947,0,13.123-8.573,13.123-19.248v-35.87H475.43V43.22h34.996v62.642h11.021V112.335z"/>
		<path fill="#231F20" d="M585.494,70.341c-7.35,0-12.25-4.725-12.25-10.674c0-4.55,2.449-5.599,2.449-7.174
			c0-0.525-0.523-1.05-1.398-1.05c-3.498,0-13.123,9.798-13.123,24.671v29.747h12.598v6.474h-46.895v-6.474H537.9V49.694h-11.025
			V43.22h33.771v13.298c5.773-11.723,14.523-14.698,21.35-14.698c9.621,0,15.746,6.3,15.746,14.698
			C597.742,64.042,593.193,70.341,585.494,70.341z"/>
	</g>
	<path fill="#EFAE1F" d="M203.585,74.654c0-19.845-8.121-37.644-20.978-49.804H20.978C8.122,37.01,0,54.809,0,74.654
		c0,19.469,7.807,36.98,20.242,49.118h163.103C195.779,111.634,203.585,94.123,203.585,74.654"/>
	<g>
		<path fill="#FFFFFF" d="M29.594,92.281c2.119,3.916,4.321,6.317,8.896,6.317c8.049,0,11.607-9.786,11.438-16.901
			c-3.898,2.313-7.626,4.002-12.202,4.002c-8.133,0-19.911-6.494-19.911-22.151c0-16.813,13.048-24.553,21.775-24.553
			c12.37,0,24.486,9.519,24.486,35.05c0,24.731-11.608,36.298-25.418,36.298c-8.134,0-15.759-5.072-19.996-12.1L29.594,92.281z
			 M40.523,50.737c-6.694,0-9.744,5.604-9.744,12.099c0,5.516,2.965,11.121,8.812,11.121c4.406,0,7.626-2.225,10.761-5.249
			C50.521,61.946,48.742,50.737,40.523,50.737z"/>
		<path fill="#FFFFFF" d="M120.672,75.291c0,25.532-12.115,35.052-24.487,35.052c-12.369,0-24.486-9.52-24.486-35.052
			c0-24.286,9.574-36.296,24.486-36.296S120.672,51.004,120.672,75.291z M84.663,75.291c0,8.362,0.509,23.751,11.522,23.751
			c11.016,0,11.523-15.389,11.523-23.751c0-8.452-0.169-24.999-11.523-24.999C84.833,50.292,84.663,66.839,84.663,75.291z"/>
		<path fill="#FFFFFF" d="M135.665,109.273h-12.539V96.107h12.539V109.273z"/>
		<path fill="#FFFFFF" d="M152.948,92.281c2.117,3.916,4.321,6.317,8.896,6.317c8.049,0,11.607-9.786,11.438-16.901
			c-3.898,2.313-7.626,4.002-12.201,4.002c-8.134,0-19.912-6.494-19.912-22.151c0-16.813,13.048-24.553,21.775-24.553
			c12.371,0,24.487,9.519,24.487,35.05c0,24.731-11.608,36.298-25.418,36.298c-8.134,0-15.759-5.072-19.996-12.1L152.948,92.281z
			 M163.877,50.737c-6.693,0-9.744,5.604-9.744,12.099c0,5.516,2.966,11.121,8.812,11.121c4.406,0,7.626-2.225,10.761-5.249
			C173.875,61.946,172.096,50.737,163.877,50.737z"/>
	</g>
	<g>
		<g>
			<path fill="#231F20" d="M6.643,179.089v-33.002h9.078c8.442,0,10.647,4.793,10.647,8.483c0,3.521-2.036,6.278-5.472,7.127
				c3.945,1.188,6.236,3.987,6.236,8.187c0,3.902-1.697,9.205-10.902,9.205H6.643z M13.218,160.297c4.242,0,9.671,0.085,9.671-5.684
				c0-5.812-5.133-5.558-9.417-5.558h-3.351v11.241H13.218z M10.121,176.12h4.115c8.017,0,9.417-2.418,9.417-6.023
				c0-3.944-1.824-6.829-9.078-6.829h-4.454V176.12z"/>
			<path fill="#231F20" d="M54.96,162.588c0,10.859-5.09,17.18-11.962,17.18s-11.962-6.32-11.962-17.18s5.09-17.18,11.962-17.18
				S54.96,151.729,54.96,162.588z M34.514,162.588c0,10.011,3.903,14.338,8.484,14.338c4.582,0,8.484-4.327,8.484-14.338
				s-3.902-14.338-8.484-14.338C38.417,148.25,34.514,152.578,34.514,162.588z"/>
			<path fill="#231F20" d="M76.553,154.995c-1.103-3.69-2.63-6.744-6.872-6.744c-3.012,0-5.812,2.418-5.812,5.642
				c0,8.229,16.077,5.006,16.077,16.544c0,5.769-4.284,9.332-9.841,9.332c-5.896,0-10.096-3.605-11.241-9.332l3.351-0.807
				c0.806,3.903,3.775,7.297,7.933,7.297c3.394,0,6.32-2.588,6.32-6.108c0-9.163-16.077-5.345-16.077-16.417
				c0-5.43,4.242-8.992,9.502-8.992c5.217,0,8.568,3.859,9.799,8.61L76.553,154.995z"/>
			<path fill="#231F20" d="M103.449,149.056h-8.866v30.033h-3.479v-30.033h-8.866v-2.969h21.21V149.056z"/>
			<path fill="#231F20" d="M129.581,162.588c0,10.859-5.09,17.18-11.962,17.18s-11.962-6.32-11.962-17.18s5.09-17.18,11.962-17.18
				S129.581,151.729,129.581,162.588z M109.134,162.588c0,10.011,3.903,14.338,8.484,14.338c4.582,0,8.484-4.327,8.484-14.338
				s-3.902-14.338-8.484-14.338C113.037,148.25,109.134,152.578,109.134,162.588z"/>
			<path fill="#231F20" d="M137.6,179.089h-3.479v-33.002h5.515l13.15,26.003h0.085v-26.003h3.479v33.002h-3.479l-15.186-29.99
				H137.6V179.089z"/>
			<path fill="#231F20" d="M165.259,150.71l-2.842,6.872h-2.121l2.121-6.532h-1.442v-4.963h4.285V150.71z"/>
			<path fill="#231F20" d="M186.13,154.995c-1.103-3.69-2.63-6.744-6.872-6.744c-3.012,0-5.812,2.418-5.812,5.642
				c0,8.229,16.077,5.006,16.077,16.544c0,5.769-4.284,9.332-9.841,9.332c-5.896,0-10.096-3.605-11.241-9.332l3.351-0.807
				c0.806,3.903,3.775,7.297,7.933,7.297c3.394,0,6.32-2.588,6.32-6.108c0-9.163-16.077-5.345-16.077-16.417
				c0-5.43,4.242-8.992,9.502-8.992c5.217,0,8.568,3.859,9.799,8.61L186.13,154.995z"/>
			<path fill="#231F20" d="M209.038,179.089h-3.479v-33.002h5.515l13.15,26.003h0.085v-26.003h3.479v33.002h-3.479l-15.186-29.99
				h-0.085V179.089z"/>
			<path fill="#231F20" d="M243.782,146.087c8.229,0,10.817,5.217,10.817,9.035c0,4.029-2.375,9.12-11.369,9.12h-5.048v14.847
				h-3.479v-33.002H243.782z M238.183,161.273h2.884c4.539,0,10.054-0.169,10.054-6.108c0-6.277-5.939-6.108-10.52-6.108h-2.418
				V161.273z"/>
			<path fill="#231F20" d="M267.623,146.087c10.266,0,12.005,5.43,12.005,9.247c0,3.945-2.503,7.127-6.236,8.356l6.321,15.398h-3.86
				l-5.981-14.847h-6.575v14.847h-3.479v-33.002H267.623z M263.296,161.273h4.666c6.83,0,8.187-3.012,8.187-6.065
				c0-4.539-2.842-6.151-7.551-6.151h-5.302V161.273z"/>
			<path fill="#231F20" d="M320.355,179.089h-3.479v-33.002h5.515l13.15,26.003h0.084v-26.003h3.479v33.002h-3.479l-15.186-29.99
				h-0.085V179.089z"/>
			<path fill="#231F20" d="M363.964,149.056h-14.423v11.241h10.308v2.97h-10.308v12.853h15.398v2.97h-18.877v-33.002h17.901V149.056
				z"/>
			<path fill="#231F20" d="M393.406,179.089h-3.395l-5.6-26.979h-0.084l-5.897,26.979h-3.394l-6.914-33.002h3.309l5.43,26.639h0.085
				l5.938-26.639h3.268l5.641,26.639h0.086l5.811-26.639h3.268L393.406,179.089z"/>
			<path fill="#231F20" d="M421.064,154.995c-1.102-3.69-2.629-6.744-6.871-6.744c-3.012,0-5.813,2.418-5.813,5.642
				c0,8.229,16.078,5.006,16.078,16.544c0,5.769-4.285,9.332-9.842,9.332c-5.896,0-10.096-3.605-11.24-9.332l3.35-0.807
				c0.807,3.903,3.775,7.297,7.934,7.297c3.393,0,6.32-2.588,6.32-6.108c0-9.163-16.078-5.345-16.078-16.417
				c0-5.43,4.242-8.992,9.502-8.992c5.219,0,8.57,3.859,9.799,8.61L421.064,154.995z"/>
			<path fill="#231F20" d="M458.354,154.995c-1.104-3.69-2.631-6.744-6.873-6.744c-3.012,0-5.811,2.418-5.811,5.642
				c0,8.229,16.076,5.006,16.076,16.544c0,5.769-4.283,9.332-9.842,9.332c-5.895,0-10.096-3.605-11.24-9.332l3.352-0.807
				c0.805,3.903,3.775,7.297,7.932,7.297c3.395,0,6.32-2.588,6.32-6.108c0-9.163-16.076-5.345-16.076-16.417
				c0-5.43,4.242-8.992,9.502-8.992c5.217,0,8.568,3.859,9.799,8.61L458.354,154.995z"/>
			<path fill="#231F20" d="M485.248,149.056h-8.865v30.033h-3.479v-30.033h-8.865v-2.969h21.209V149.056z"/>
			<path fill="#231F20" d="M507.775,179.089h-3.564l-3.012-10.521h-10.732l-2.842,10.521h-3.563l9.289-33.002h4.922L507.775,179.089
				z M495.77,148.292h-0.084l-4.328,17.308h9.035L495.77,148.292z"/>
			<path fill="#231F20" d="M527.799,149.056h-8.867v30.033h-3.479v-30.033h-8.865v-2.969h21.211V149.056z"/>
			<path fill="#231F20" d="M534.969,179.089h-3.479v-33.002h3.479V179.089z"/>
			<path fill="#231F20" d="M564.281,162.588c0,10.859-5.09,17.18-11.963,17.18c-6.871,0-11.961-6.32-11.961-17.18
				s5.09-17.18,11.961-17.18C559.191,145.409,564.281,151.729,564.281,162.588z M543.836,162.588
				c0,10.011,3.902,14.338,8.482,14.338c4.582,0,8.484-4.327,8.484-14.338s-3.902-14.338-8.484-14.338
				C547.738,148.25,543.836,152.578,543.836,162.588z"/>
			<path fill="#231F20" d="M572.725,179.089h-3.479v-33.002h5.514l13.15,26.003h0.084v-26.003h3.479v33.002h-3.479l-15.186-29.99
				h-0.084V179.089z"/>
		</g>
		<g>
			<path fill="#231F20" d="M296.938,157.648c-1.485,1.491-3.28,2.237-5.386,2.237s-3.898-0.746-5.375-2.237
				c-1.471-1.484-2.206-3.283-2.206-5.396c0-2.093,0.742-3.881,2.227-5.365c1.478-1.478,3.262-2.217,5.354-2.217
				c2.106,0,3.901,0.739,5.386,2.217c1.484,1.478,2.227,3.266,2.227,5.365C299.165,154.358,298.422,156.157,296.938,157.648z
				 M286.933,147.633c-1.271,1.277-1.906,2.82-1.906,4.629c0,1.823,0.632,3.377,1.896,4.661c1.27,1.284,2.813,1.926,4.629,1.926
				s3.359-0.642,4.63-1.926c1.27-1.284,1.905-2.838,1.905-4.661c0-1.809-0.635-3.352-1.905-4.629
				c-1.278-1.285-2.821-1.927-4.63-1.927C289.75,145.707,288.21,146.348,286.933,147.633z M291.407,148.057
				c1.036,0,1.795,0.101,2.279,0.301c0.863,0.359,1.294,1.064,1.294,2.115c0,0.746-0.271,1.296-0.814,1.648
				c-0.289,0.187-0.691,0.321-1.206,0.404c0.652,0.104,1.13,0.376,1.432,0.817s0.454,0.872,0.454,1.293v0.61
				c0,0.193,0.007,0.4,0.021,0.621c0.014,0.221,0.038,0.365,0.072,0.435l0.052,0.104h-1.377c-0.007-0.028-0.014-0.056-0.021-0.083
				c-0.007-0.027-0.014-0.059-0.021-0.093l-0.031-0.269V155.3c0-0.963-0.263-1.6-0.787-1.91c-0.311-0.179-0.856-0.268-1.637-0.268
				h-1.16v3.283h-1.471v-8.349H291.407z M292.996,149.373c-0.371-0.207-0.964-0.311-1.782-0.311h-1.256v3.024h1.33
				c0.623,0,1.09-0.063,1.402-0.187c0.575-0.228,0.862-0.663,0.862-1.305C293.551,149.988,293.366,149.58,292.996,149.373z"/>
		</g>
	</g>
</g>
</svg>
